{
    "asset" : {
        "generator" : "Khronos glTF Blender I/O v1.1.46",
        "version" : "2.0"
    },
    "scene" : 0,
    "scenes" : [
        {
            "name" : "Scene",
            "nodes" : [
                0
            ]
        }
    ],
    "nodes" : [
        {
            "mesh" : 0,
            "name" : "Circle",
            "scale" : [
                0.699999988079071,
                0.4899999797344208,
                0.699999988079071
            ]
        }
    ],
    "materials" : [
        {
            "doubleSided" : true,
            "emissiveFactor" : [
                0,
                0,
                0
            ],
            "name" : "Material.001",
            "pbrMetallicRoughness" : {
                "baseColorFactor" : [
                    0,
                    0,
                    0,
                    1
                ],
                "metallicFactor" : 0.44999998807907104,
                "roughnessFactor" : 0
            }
        },
        {
            "doubleSided" : true,
            "emissiveFactor" : [
                0,
                0,
                0
            ],
            "name" : "Material.002",
            "pbrMetallicRoughness" : {
                "baseColorFactor" : [
                    1,
                    0,
                    0.9355294108390808,
                    1
                ],
                "metallicFactor" : 0,
                "roughnessFactor" : 1
            }
        },
        {
            "doubleSided" : true,
            "emissiveFactor" : [
                0.2670181691646576,
                0.07915843278169632,
                1
            ],
            "name" : "Material.005",
            "pbrMetallicRoughness" : {}
        }
    ],
    "meshes" : [
        {
            "name" : "Circle.001",
            "primitives" : [
                {
                    "attributes" : {
                        "POSITION" : 0,
                        "NORMAL" : 1,
                        "TEXCOORD_0" : 2
                    },
                    "indices" : 3,
                    "material" : 0
                },
                {
                    "attributes" : {
                        "POSITION" : 4,
                        "NORMAL" : 5,
                        "TEXCOORD_0" : 6
                    },
                    "indices" : 7,
                    "material" : 1
                },
                {
                    "attributes" : {
                        "POSITION" : 8,
                        "NORMAL" : 9,
                        "TEXCOORD_0" : 10
                    },
                    "indices" : 11,
                    "material" : 2
                }
            ]
        }
    ],
    "accessors" : [
        {
            "bufferView" : 0,
            "componentType" : 5126,
            "count" : 1260,
            "max" : [
                1,
                0.1428571492433548,
                1
            ],
            "min" : [
                -1,
                0,
                -0.7518398761749268
            ],
            "type" : "VEC3"
        },
        {
            "bufferView" : 1,
            "componentType" : 5126,
            "count" : 1260,
            "type" : "VEC3"
        },
        {
            "bufferView" : 2,
            "componentType" : 5126,
            "count" : 1260,
            "type" : "VEC2"
        },
        {
            "bufferView" : 3,
            "componentType" : 5123,
            "count" : 1956,
            "type" : "SCALAR"
        },
        {
            "bufferView" : 4,
            "componentType" : 5126,
            "count" : 302,
            "max" : [
                0.608761727809906,
                0.1428571343421936,
                -0.5553472638130188
            ],
            "min" : [
                -0.6087613701820374,
                0,
                -1
            ],
            "type" : "VEC3"
        },
        {
            "bufferView" : 5,
            "componentType" : 5126,
            "count" : 302,
            "type" : "VEC3"
        },
        {
            "bufferView" : 6,
            "componentType" : 5126,
            "count" : 302,
            "type" : "VEC2"
        },
        {
            "bufferView" : 7,
            "componentType" : 5123,
            "count" : 492,
            "type" : "SCALAR"
        },
        {
            "bufferView" : 8,
            "componentType" : 5126,
            "count" : 2844,
            "max" : [
                1,
                0.1428571492433548,
                1
            ],
            "min" : [
                -1,
                0,
                -1
            ],
            "type" : "VEC3"
        },
        {
            "bufferView" : 9,
            "componentType" : 5126,
            "count" : 2844,
            "type" : "VEC3"
        },
        {
            "bufferView" : 10,
            "componentType" : 5126,
            "count" : 2844,
            "type" : "VEC2"
        },
        {
            "bufferView" : 11,
            "componentType" : 5123,
            "count" : 4680,
            "type" : "SCALAR"
        }
    ],
    "bufferViews" : [
        {
            "buffer" : 0,
            "byteLength" : 15120,
            "byteOffset" : 0
        },
        {
            "buffer" : 0,
            "byteLength" : 15120,
            "byteOffset" : 15120
        },
        {
            "buffer" : 0,
            "byteLength" : 10080,
            "byteOffset" : 30240
        },
        {
            "buffer" : 0,
            "byteLength" : 3912,
            "byteOffset" : 40320
        },
        {
            "buffer" : 0,
            "byteLength" : 3624,
            "byteOffset" : 44232
        },
        {
            "buffer" : 0,
            "byteLength" : 3624,
            "byteOffset" : 47856
        },
        {
            "buffer" : 0,
            "byteLength" : 2416,
            "byteOffset" : 51480
        },
        {
            "buffer" : 0,
            "byteLength" : 984,
            "byteOffset" : 53896
        },
        {
            "buffer" : 0,
            "byteLength" : 34128,
            "byteOffset" : 54880
        },
        {
            "buffer" : 0,
            "byteLength" : 34128,
            "byteOffset" : 89008
        },
        {
            "buffer" : 0,
            "byteLength" : 22752,
            "byteOffset" : 123136
        },
        {
            "buffer" : 0,
            "byteLength" : 9360,
            "byteOffset" : 145888
        }
    ],
    "buffers" : [
        {
            "byteLength" : 155248,
            "uri" : "data:application/octet-stream;base64,"
        }
    ]
}
