{
    "asset" : {
        "generator" : "Khronos glTF Blender I/O v1.1.46",
        "version" : "2.0"
    },
    "scene" : 0,
    "scenes" : [
        {
            "name" : "Scene",
            "nodes" : [
                0
            ]
        }
    ],
    "nodes" : [
        {
            "mesh" : 0,
            "name" : "Text",
            "rotation" : [
                0.7071067690849304,
                0,
                0,
                0.7071067690849304
            ]
        }
    ],
    "materials" : [
        {
            "doubleSided" : true,
            "emissiveFactor" : [
                0.017886044457554817,
                1,
                0.6618712544441223
            ],
            "name" : "NameGlow",
            "pbrMetallicRoughness" : {}
        }
    ],
    "meshes" : [
        {
            "name" : "Text",
            "primitives" : [
                {
                    "attributes" : {
                        "POSITION" : 0,
                        "NORMAL" : 1,
                        "TEXCOORD_0" : 2
                    },
                    "indices" : 3,
                    "material" : 0
                }
            ]
        }
    ],
    "accessors" : [
        {
            "bufferView" : 0,
            "componentType" : 5126,
            "count" : 16306,
            "max" : [
                6.362142086029053,
                0.02000000700354576,
                0.028999917209148407
            ],
            "min" : [
                0.0608578659594059,
                -0.020000005140900612,
                -0.7019937038421631
            ],
            "type" : "VEC3"
        },
        {
            "bufferView" : 1,
            "componentType" : 5126,
            "count" : 16306,
            "type" : "VEC3"
        },
        {
            "bufferView" : 2,
            "componentType" : 5126,
            "count" : 16306,
            "type" : "VEC2"
        },
        {
            "bufferView" : 3,
            "componentType" : 5123,
            "count" : 88560,
            "type" : "SCALAR"
        }
    ],
    "bufferViews" : [
        {
            "buffer" : 0,
            "byteLength" : 195672,
            "byteOffset" : 0
        },
        {
            "buffer" : 0,
            "byteLength" : 195672,
            "byteOffset" : 195672
        },
        {
            "buffer" : 0,
            "byteLength" : 130448,
            "byteOffset" : 391344
        },
        {
            "buffer" : 0,
            "byteLength" : 177120,
            "byteOffset" : 521792
        }
    ],
    "buffers" : [
        {
            "byteLength" : 698912,
            "uri" : "data:application/octet-stream;base64,"
        }
    ]
}
